<svg width="512" height="512" viewBox="0 0 512 512" fill="none" xmlns="http://www.w3.org/2000/svg">
  <rect width="512" height="512" fill="#FF3E00"/>
  <path d="m409.68 181.01c-23.99-51.76-77.09-85.68-138.21-87.33l-24.73 43.21 24.73-43.21c-2.79-.08-5.6-.12-8.42-.12-94.11 0-170.63 76.04-171 170.14-.25 64.3 35.5 120.31 88.23 150.2l24.78-43.19v-.01c-32.85-18.63-54.97-54.07-54.78-94.74.22-60.12 49.2-108.9 109.32-108.9 38.97 0 73.15 20.45 92.54 51.18l57.54-36.23z" fill="white"/>
  <path d="m263.47 93.68c61.12 1.65 114.22 35.57 138.21 87.33l-57.54 36.23c-19.39-30.73-53.57-51.18-92.54-51.18-60.12 0-109.1 48.78-109.32 108.9-.19 40.67 21.93 76.11 54.78 94.74v.01l-24.78 43.19c-52.73-29.89-88.48-85.9-88.23-150.2.37-94.1 76.89-170.14 171-170.14 2.82 0 5.63.04 8.42.12z" fill="white"/>
</svg>
